<?xml version="1.0"?>
<svg xmlns="http://www.w3.org/2000/svg" xmlns:xlink="http://www.w3.org/1999/xlink" xmlns:svgjs="http://svgjs.com/svgjs" version="1.1" width="512" height="512" x="0" y="0" viewBox="0 0 32 32" style="enable-background:new 0 0 512 512" xml:space="preserve" class=""><g><g xmlns="http://www.w3.org/2000/svg" id="_x31_2-archive"><g><path d="m29 2.9h-26c-.6 0-1 .4-1 1v5.7c0 .6.4 1 1 1h.9v17.4c0 .6.4 1 1 1h22.2c.6 0 1-.4 1-1v-17.4h.9c.6 0 1-.4 1-1v-5.7c0-.5-.4-1-1-1zm-2.9 24.2h-20.2v-16.5h20.2zm1.9-18.5h-24v-3.7h24z" fill="#3f51b5" data-original="#000000" style="" class=""/><path d="m12 17h8c.6 0 1-.4 1-1s-.4-1-1-1h-8c-.6 0-1 .4-1 1s.4 1 1 1z" fill="#3f51b5" data-original="#000000" style="" class=""/></g></g></g></svg>
