<svg id="Layer_1" enable-background="new 0 0 512 512" height="512" viewBox="0 0 512 512" width="512" xmlns="http://www.w3.org/2000/svg"><path d="m441 140.5v338c0 18.2-14.7 32.9-32.9 32.9h-304.2c-18.2 0-32.9-14.7-32.9-32.9v-445c0-18.2 14.7-32.9 32.9-32.9h197.2z" fill="#23a566"/><path d="m336.9 254.9h-161.8c-5.8 0-10.5 4.7-10.5 10.5v140.9c0 5.8 4.7 10.5 10.5 10.5h161.9c5.8 0 10.5-4.7 10.5-10.5v-140.8c-.1-5.8-4.8-10.6-10.6-10.6zm-151.3 67.6h59.9v26.7h-59.9zm80.9 0h59.9v26.7h-59.9zm59.9-21h-59.9v-25.5h59.9zm-80.9-25.5v25.5h-59.9v-25.5zm-59.9 94.3h59.9v25.5h-59.9zm80.9 25.5v-25.5h59.9v25.5z" fill="#fff"/><path d="m319.9 135.4 121.1 98.1v-92.1l-68.7-39.9z" opacity=".19"/><path d="m441 140.5h-107c-18.2 0-32.9-14.7-32.9-32.9v-107z" fill="#8ed1b1"/></svg>