<?xml version="1.0"?>
<svg xmlns="http://www.w3.org/2000/svg" xmlns:xlink="http://www.w3.org/1999/xlink" xmlns:svgjs="http://svgjs.com/svgjs" version="1.1" width="512" height="512" x="0" y="0" viewBox="0 0 32 32" style="enable-background:new 0 0 512 512" xml:space="preserve" class=""><g><path xmlns="http://www.w3.org/2000/svg" id="XMLID_1124_" d="m16 2c-3.309 0-6 2.691-6 6v2h-5c-.285 0-.556.121-.745.333-.19.212-.28.495-.249.777l1.703 15.331c.226 2.029 1.935 3.559 3.976 3.559h12.63c2.042 0 3.75-1.53 3.975-3.559l1.704-15.331c.032-.283-.059-.565-.249-.777-.189-.212-.46-.333-.745-.333h-5v-2c0-3.309-2.691-6-6-6zm-4 6c0-2.206 1.794-4 4-4s4 1.794 4 4v2h-8zm13.883 4-1.581 14.221c-.112 1.014-.967 1.779-1.987 1.779h-12.63c-1.021 0-1.875-.765-1.988-1.779l-1.58-14.221h3.883v2c-.552 0-1 .448-1 1s.448 1 1 1h2c.552 0 1-.448 1-1s-.448-1-1-1v-2h8v2c-.552 0-1 .448-1 1s.448 1 1 1h2c.552 0 1-.448 1-1s-.448-1-1-1v-2z" fill="#3f51b5" data-original="#000000" style=""/><path xmlns="http://www.w3.org/2000/svg" id="XMLID_108_" d="m20.625 18.219c.432.346.501.975.156 1.406l-4 5c-.321.401-.901.497-1.335.207l-3-2c-.459-.307-.583-.927-.277-1.387.307-.46.926-.584 1.387-.277l2.237 1.491 3.427-4.284c.344-.431.975-.501 1.405-.156z" fill="#3f51b5" data-original="#000000" style=""/></g></svg>
