<?xml version="1.0" encoding="utf-8"?>
<!-- Generator: Adobe Illustrator 25.0.1, SVG Export Plug-In . SVG Version: 6.00 Build 0)  -->
<!DOCTYPE svg PUBLIC "-//W3C//DTD SVG 1.1//EN" "http://www.w3.org/Graphics/SVG/1.1/DTD/svg11.dtd" [
	<!ENTITY ns_extend "http://ns.adobe.com/Extensibility/1.0/">
	<!ENTITY ns_ai "http://ns.adobe.com/AdobeIllustrator/10.0/">
	<!ENTITY ns_graphs "http://ns.adobe.com/Graphs/1.0/">
	<!ENTITY ns_vars "http://ns.adobe.com/Variables/1.0/">
	<!ENTITY ns_imrep "http://ns.adobe.com/ImageReplacement/1.0/">
	<!ENTITY ns_sfw "http://ns.adobe.com/SaveForWeb/1.0/">
	<!ENTITY ns_custom "http://ns.adobe.com/GenericCustomNamespace/1.0/">
	<!ENTITY ns_adobe_xpath "http://ns.adobe.com/XPath/1.0/">
]>
<svg version="1.1" id="Layer_1" xmlns:x="&ns_extend;" xmlns:i="&ns_ai;" xmlns:graph="&ns_graphs;"
	 xmlns="http://www.w3.org/2000/svg" xmlns:xlink="http://www.w3.org/1999/xlink" x="0px" y="0px" viewBox="0 0 390 174"
	 style="enable-background:new 0 0 390 174;" xml:space="preserve">
<style type="text/css">
	.st0{fill:#FFFFFF;}
	.st1{fill:#C8C8C8;}
</style>
<metadata>
	<sfw  xmlns="&ns_sfw;">
		<slices></slices>
		<sliceSourceBounds  bottomLeftOrigin="true" height="104.3" width="233.8" x="588.1" y="-1155.2"></sliceSourceBounds>
	</sfw>
</metadata>
<g>
	<g>
		<path class="st0" d="M125.2,56.9h14.5v55c0,8.8-3,15.5-8.9,20.2c-5.9,4.7-12.9,7-21.2,7c-11.9,0-21.5-4.4-26.7-12.9l12-8.3
			c2.9,5.4,8,8,15.1,8c9.3,0,15.1-5,15.1-14.1v-6.2c-4.4,5.8-10.5,8.7-18.4,8.7c-8.2,0-15-2.9-20.5-8.5c-5.4-5.7-8.2-12.7-8.2-20.8
			c0-8.1,2.8-15,8.3-20.7c5.5-5.7,12.3-8.6,20.4-8.6c8,0,14.1,2.9,18.4,8.7V56.9z M120.6,74.1c-3-3-6.8-4.5-11.5-4.5
			c-4.7,0-8.5,1.5-11.6,4.5c-3,2.9-4.5,6.6-4.5,11.1c0,9.1,6.8,15.7,16.1,15.7s16.1-6.5,16.1-15.7C125.2,80.7,123.7,77,120.6,74.1z"
			/>
		<rect x="153.3" y="34.8" class="st0" width="14.9" height="79.9"/>
		<path class="st0" d="M237.5,74.4c-1.7,5.4-6.7,9.4-12.8,9.3c0,0.3,0.2,1.6,0.2,2.4c0,4.6-1.5,8.3-4.5,11.3c-3,3-6.7,4.5-11.2,4.5
			c-4.5,0-8.2-1.5-11.2-4.5c-2.9-3-4.4-6.7-4.4-11.3c0-4.6,1.5-8.3,4.4-11.3c3-3,6.7-4.5,11.2-4.5c0.9,0,2.3,0.1,2.5,0.2
			c0-5.8,3.7-10.6,9-12.5c-3.5-1.4-7.3-2.1-11.4-2.1c-8.5,0-15.8,3-21.7,8.8c-5.9,5.8-8.8,12.9-8.8,21.4c0,8.5,2.9,15.7,8.8,21.5
			c5.9,5.8,13.1,8.7,21.7,8.7c8.5,0,15.8-2.9,21.7-8.7c5.9-5.8,8.9-13,8.9-21.5C239.7,81.9,239,77.9,237.5,74.4z"/>
		<path class="st0" d="M303.6,64.7c5.5,5.8,8.3,12.9,8.3,21.4s-2.8,15.7-8.3,21.5c-5.4,5.8-12.1,8.7-19.8,8.7
			c-8.1,0-14.3-2.7-18.7-8.3v6.7h-14.9V34.8h14.9v29.4c4.4-5.6,10.6-8.3,18.7-8.3C291.5,55.9,298.2,58.9,303.6,64.7z M281,102.2
			c4.6,0,8.4-1.5,11.4-4.5c3.1-3.1,4.6-7,4.6-11.7s-1.5-8.6-4.6-11.5c-3-3.1-6.8-4.6-11.4-4.6c-4.6,0-8.4,1.5-11.4,4.6
			c-3,3-4.5,6.9-4.5,11.5s1.5,8.6,4.5,11.7C272.6,100.8,276.4,102.2,281,102.2z"/>
	</g>
	<circle class="st1" cx="224.9" cy="70.5" r="8.4"/>
</g>
</svg>
